<svg width="1280" height="720" xmlns="http://www.w3.org/2000/svg" xmlns:xlink="http://www.w3.org/1999/xlink" overflow="hidden"><defs><clipPath id="clip0"><rect x="0" y="0" width="1280" height="720"/></clipPath></defs><g clip-path="url(#clip0)"><rect x="0" y="0" width="1280" height="720" fill="#FFFFFF"/><path d="M216 123 216 676.06" stroke="#A6A6A6" stroke-width="2" stroke-miterlimit="8" stroke-dasharray="8 6" fill="none" fill-rule="evenodd"/><path d="M651 143 651 675.43" stroke="#A6A6A6" stroke-width="2" stroke-miterlimit="8" stroke-dasharray="8 6" fill="none" fill-rule="evenodd"/><path d="M1064 143 1064 675.43" stroke="#A6A6A6" stroke-width="2" stroke-miterlimit="8" stroke-dasharray="8 6" fill="none" fill-rule="evenodd"/><path d="M197 184C197 173.507 205.507 165 216 165 226.493 165 235 173.507 235 184 235 194.493 226.493 203 216 203 205.507 203 197 194.493 197 184Z" fill="#A5A5A5" fill-rule="evenodd"/><text fill="#FFFFFF" font-family="Poppins Medium,Poppins Medium_MSFontService,sans-serif" font-weight="500" font-size="24" transform="translate(211.795 192)">1</text><path d="M715.5 280.5C715.5 270.007 723.783 261.5 734 261.5 744.217 261.5 752.5 270.007 752.5 280.5 752.5 290.993 744.217 299.5 734 299.5 723.783 299.5 715.5 290.993 715.5 280.5Z" stroke="#FFFFFF" stroke-width="1.33333" stroke-miterlimit="8" fill="#A5A5A5" fill-rule="evenodd"/><text fill="#FFFFFF" font-family="Poppins Medium,Poppins Medium_MSFontService,sans-serif" font-weight="500" font-size="24" transform="translate(726.683 288)">2</text><path d="M235.5 183 644.237 183 644.237 186 235.5 186ZM642.737 180 651.737 184.5 642.737 189Z" fill="#C55A11"/><rect x="629.5" y="211.5" width="42" height="122" stroke="#7C7C7C" stroke-width="1.33333" stroke-miterlimit="8" fill="#FFFFFF"/><path d="M4.85544e-06-1.5 24.9338-1.49992 24.9338 1.50008-4.85544e-06 1.5ZM23.4338-4.49992 32.4338 0.000104987 23.4338 4.50008Z" fill="#C55A11" transform="matrix(-1 0 0 1 701.934 299.5)"/><path d="M0 0 32.4338 0.000104987" stroke="#C55A11" stroke-width="3" stroke-miterlimit="8" fill="none" fill-rule="evenodd" transform="matrix(-1 0 0 1 701.934 247.5)"/><path d="M0 0 0.000104987 51.7624" stroke="#C55A11" stroke-width="3" stroke-miterlimit="8" fill="none" fill-rule="evenodd" transform="matrix(1 0 0 -1 700.5 299.262)"/><text font-family="Poppins Medium,Poppins Medium_MSFontService,sans-serif" font-weight="500" font-size="12" transform="translate(244.285 159)">Authenticate<tspan font-size="12" x="81.6667" y="0">with</tspan><tspan font-size="12" x="110.167" y="0">Client ID + Client Secret (Basic) to /</tspan><tspan font-size="12" x="323.667" y="0">connect</tspan>/<tspan font-size="12" x="379.333" y="0">token</tspan><tspan font-size="12" x="512.991" y="119">Validate</tspan><tspan font-size="12" x="567.158" y="119">Client</tspan><tspan font-size="12" x="605.658" y="119">ID</tspan><tspan font-size="12" x="620.491" y="119">+</tspan><tspan font-size="12" x="632.158" y="119">Secret</tspan><tspan font-size="12" x="673.491" y="119">key</tspan></text><path d="M3.67502e-07-1.5 421.016-1.4999 421.016 1.5001-3.67502e-07 1.5ZM419.515-4.4999 428.515 0.000104987 419.515 4.5001Z" fill="#C55A11" transform="matrix(-1 0 0 1 649.015 386.5)"/><path d="M631 386C631 375.507 639.507 367 650 367 660.493 367 669 375.507 669 386 669 396.493 660.493 405 650 405 639.507 405 631 396.493 631 386Z" fill="#A5A5A5" fill-rule="evenodd"/><text fill="#FFFFFF" font-family="Poppins Medium,Poppins Medium_MSFontService,sans-serif" font-weight="500" font-size="24" transform="translate(642.701 394)">3</text><path d="M196 457.5C196 447.283 204.283 439 214.5 439 224.717 439 233 447.283 233 457.5 233 467.717 224.717 476 214.5 476 204.283 476 196 467.717 196 457.5Z" fill="#A5A5A5" fill-rule="evenodd"/><text fill="#FFFFFF" font-family="Poppins Medium,Poppins Medium_MSFontService,sans-serif" font-weight="500" font-size="24" transform="translate(206.48 465)">4<tspan fill="#000000" font-size="12" x="256.899" y="-100">Return</tspan><tspan fill="#000000" font-size="12" x="299.899" y="-100">Access_Toke</tspan><tspan fill="#000000" font-size="12" x="380.566" y="-100">n</tspan></text><path d="M233.509 457 1057.09 462.104 1057.08 465.104 233.491 460ZM1055.61 459.095 1064.59 463.65 1055.56 468.095Z" fill="#C55A11"/><text font-family="Poppins Medium,Poppins Medium_MSFontService,sans-serif" font-weight="500" font-size="12" transform="translate(238.549 439)">Request<tspan font-size="12" x="52.3333" y="0">data </tspan><tspan font-size="12" x="84.5" y="0">with</tspan><tspan font-size="12" x="113" y="0">Access </tspan><tspan font-size="12" x="158.833" y="0">Token</tspan><tspan font-size="12" x="198.333" y="0">(</tspan><tspan font-size="12" x="204.167" y="0">Bearer</tspan><tspan font-size="12" x="243.833" y="0">)</tspan></text><rect x="103" y="46" width="226" height="73" fill="#F2F2F2"/><text fill="#7F7F7F" font-family="Poppins Medium,Poppins Medium_MSFontService,sans-serif" font-weight="500" font-size="12" transform="translate(168.212 87)">Your<tspan font-size="12" x="30.6667" y="0">server app</tspan></text><rect x="544" y="44" width="226" height="73" fill="#F2F2F2"/><text fill="#7F7F7F" font-family="Poppins Medium,Poppins Medium_MSFontService,sans-serif" font-weight="500" font-size="12" transform="translate(574.919 78)">Dastra<tspan font-size="12" x="43.5" y="0">identification server</tspan><tspan font-size="11" x="11.8333" y="13">https://account.dastra.e</tspan><tspan font-size="11" x="144.833" y="13">u</tspan></text><rect x="951" y="47" width="226" height="73" fill="#F2F2F2"/><text fill="#7F7F7F" font-family="Poppins Medium,Poppins Medium_MSFontService,sans-serif" font-weight="500" font-size="13" transform="translate(1006.96 81)">Dastra<tspan font-size="13" x="48.3334" y="0">API server</tspan><tspan font-size="11" x="-6.83337" y="14">https://api.dastra.eu/v1</tspan></text><path d="M1.86399e-07-1.5 837.354-1.4999 837.354 1.5001-1.86399e-07 1.5ZM835.854-4.4999 844.854 0.000104987 835.854 4.5001Z" fill="#C55A11" transform="matrix(-1 0 0 1 1064.35 546.5)"/><path d="M1045 546C1045 535.507 1053.51 527 1064 527 1074.49 527 1083 535.507 1083 546 1083 556.493 1074.49 565 1064 565 1053.51 565 1045 556.493 1045 546Z" fill="#A5A5A5" fill-rule="evenodd"/><text fill="#FFFFFF" font-family="Poppins Medium,Poppins Medium_MSFontService,sans-serif" font-weight="500" font-size="24" transform="translate(1056.27 554)">5<tspan fill="#000000" font-size="12" x="-110.941" y="-30">API </tspan><tspan fill="#000000" font-size="12" x="-89.1077" y="-30">Response</tspan></text></g></svg>