<svg width="1280" height="720" xmlns="http://www.w3.org/2000/svg" xmlns:xlink="http://www.w3.org/1999/xlink" overflow="hidden"><defs><clipPath id="clip0"><rect x="0" y="0" width="1280" height="720"/></clipPath></defs><g clip-path="url(#clip0)"><rect x="0" y="0" width="1280" height="720" fill="#FFFFFF"/><path d="M278 179 278 647.292" stroke="#A6A6A6" stroke-width="2" stroke-miterlimit="8" stroke-dasharray="8 6" fill="none" fill-rule="evenodd"/><path d="M646 196 646 646.825" stroke="#A6A6A6" stroke-width="2" stroke-miterlimit="8" stroke-dasharray="8 6" fill="none" fill-rule="evenodd"/><path d="M996 196 996 646.825" stroke="#A6A6A6" stroke-width="2" stroke-miterlimit="8" stroke-dasharray="8 6" fill="none" fill-rule="evenodd"/><path d="M262 231C262 222.163 269.163 215 278 215 286.837 215 294 222.163 294 231 294 239.837 286.837 247 278 247 269.163 247 262 239.837 262 231Z" fill="#A5A5A5" fill-rule="evenodd"/><text fill="#FFFFFF" font-family="Poppins Medium,Poppins Medium_MSFontService,sans-serif" font-weight="500" font-size="24" transform="translate(274.033 238)">1</text><path d="M701.5 312.5C701.5 303.664 708.44 296.5 717 296.5 725.56 296.5 732.5 303.664 732.5 312.5 732.5 321.337 725.56 328.5 717 328.5 708.44 328.5 701.5 321.337 701.5 312.5Z" stroke="#FFFFFF" stroke-width="1.33333" stroke-miterlimit="8" fill="#A5A5A5" fill-rule="evenodd"/><text fill="#FFFFFF" font-family="Poppins Medium,Poppins Medium_MSFontService,sans-serif" font-weight="500" font-size="24" transform="translate(709.583 320)">2</text><path d="M294.5 230 639.441 230 639.441 233 294.5 233ZM637.94 227 646.94 231.5 637.94 236Z" fill="#C55A11"/><rect x="628.5" y="254.5" width="35" height="103" stroke="#7C7C7C" stroke-width="1.33333" stroke-miterlimit="8" fill="#FFFFFF"/><path d="M5.73434e-06-1.5 19.9627-1.49992 19.9627 1.50008-5.73434e-06 1.5ZM18.4627-4.49993 27.4627 0.000104987 18.4627 4.50007Z" fill="#C55A11" transform="matrix(-1 0 0 1 689.963 328.5)"/><path d="M0 0 27.4627 0.000104987" stroke="#C55A11" stroke-width="3" stroke-miterlimit="8" fill="none" fill-rule="evenodd" transform="matrix(-1 0 0 1 689.963 284.5)"/><path d="M0 0 0.000104987 43.8288" stroke="#C55A11" stroke-width="3" stroke-miterlimit="8" fill="none" fill-rule="evenodd" transform="matrix(1 0 0 -1 688.5 328.329)"/><text font-family="Poppins Medium,Poppins Medium_MSFontService,sans-serif" font-weight="500" font-size="12" transform="translate(303.653 212)">Authenticate<tspan font-size="12" x="81.6667" y="0">with</tspan><tspan font-size="12" x="110.167" y="0">Client ID + Client Secret (Basic) to /</tspan><tspan font-size="12" x="323.667" y="0">connect</tspan>/<tspan font-size="12" x="379.333" y="0">token</tspan><tspan font-size="12" x="434.365" y="100">Validate</tspan><tspan font-size="12" x="488.531" y="100">Client</tspan><tspan font-size="12" x="527.031" y="100">ID</tspan><tspan font-size="12" x="541.865" y="100">+</tspan><tspan font-size="12" x="553.531" y="100">Secret</tspan><tspan font-size="12" x="594.865" y="100">key</tspan></text><path d="M4.34026e-07-1.5 355.336-1.4999 355.336 1.5001-4.34026e-07 1.5ZM353.836-4.4999 362.836 0.000104987 353.836 4.5001Z" fill="#C55A11" transform="matrix(-1 0 0 1 645.336 402.5)"/><path d="M630 402C630 393.163 636.94 386 645.5 386 654.06 386 661 393.163 661 402 661 410.837 654.06 418 645.5 418 636.94 418 630 410.837 630 402Z" fill="#A5A5A5" fill-rule="evenodd"/><text fill="#FFFFFF" font-family="Poppins Medium,Poppins Medium_MSFontService,sans-serif" font-weight="500" font-size="24" transform="translate(638.434 410)">3</text><path d="M261 462.5C261 453.94 268.163 447 277 447 285.837 447 293 453.94 293 462.5 293 471.06 285.837 478 277 478 268.163 478 261 471.06 261 462.5Z" fill="#A5A5A5" fill-rule="evenodd"/><text fill="#FFFFFF" font-family="Poppins Medium,Poppins Medium_MSFontService,sans-serif" font-weight="500" font-size="24" transform="translate(268.984 470)">4<tspan fill="#000000" font-size="12" x="220.184" y="-84">Return</tspan><tspan fill="#000000" font-size="12" x="263.184" y="-84">Access_Toke</tspan><tspan fill="#000000" font-size="12" x="343.85" y="-84">n</tspan></text><path d="M293.509 461 989.71 465.315 989.691 468.314 293.491 464ZM988.232 462.305 997.204 466.861 988.177 471.305Z" fill="#C55A11"/><text font-family="Poppins Medium,Poppins Medium_MSFontService,sans-serif" font-weight="500" font-size="12" transform="translate(298.796 449)">Request<tspan font-size="12" x="52.3333" y="0">data </tspan><tspan font-size="12" x="84.5" y="0">with</tspan><tspan font-size="12" x="113" y="0">Access </tspan><tspan font-size="12" x="158.833" y="0">Token</tspan><tspan font-size="12" x="198.333" y="0">(</tspan><tspan font-size="12" x="204.167" y="0">Bearer</tspan><tspan font-size="12" x="243.833" y="0">)</tspan></text><rect x="182" y="114" width="192" height="62" fill="#F2F2F2"/><text fill="#7F7F7F" font-family="Poppins Medium,Poppins Medium_MSFontService,sans-serif" font-weight="500" font-size="12" transform="translate(230.45 149)">Your<tspan font-size="12" x="30.6667" y="0">server app</tspan></text><rect x="556" y="112" width="191" height="62" fill="#F2F2F2"/><text fill="#7F7F7F" font-family="Poppins Medium,Poppins Medium_MSFontService,sans-serif" font-weight="500" font-size="12" transform="translate(569.596 141)">Dastra<tspan font-size="12" x="43.5" y="0">identification server</tspan><tspan font-size="11" x="11.8333" y="13">https://account.dastra.e</tspan><tspan font-size="11" x="144.833" y="13">u</tspan></text><rect x="901" y="115" width="191" height="62" fill="#F2F2F2"/><text fill="#7F7F7F" font-family="Poppins Medium,Poppins Medium_MSFontService,sans-serif" font-weight="500" font-size="13" transform="translate(939.208 143)">Dastra<tspan font-size="13" x="48.3333" y="0">API server</tspan><tspan font-size="11" x="-6.83337" y="14">https://api.dastra.eu/v1</tspan></text><path d="M2.2014e-07-1.5 707.863-1.4999 707.863 1.5001-2.2014e-07 1.5ZM706.363-4.4999 715.363 0.000104987 706.363 4.5001Z" fill="#C55A11" transform="matrix(-1 0 0 1 996.863 537.5)"/><path d="M980 537.5C980 528.94 987.163 522 996 522 1004.84 522 1012 528.94 1012 537.5 1012 546.06 1004.84 553 996 553 987.163 553 980 546.06 980 537.5Z" fill="#A5A5A5" fill-rule="evenodd"/><text fill="#FFFFFF" font-family="Poppins Medium,Poppins Medium_MSFontService,sans-serif" font-weight="500" font-size="24" transform="translate(988.538 545)">5<tspan fill="#000000" font-size="12" x="-91.2905" y="-24">API </tspan><tspan fill="#000000" font-size="12" x="-69.4572" y="-24">Response</tspan></text></g></svg>