<svg id="Calque_2" data-name="Calque 2" xmlns="http://www.w3.org/2000/svg" xmlns:xlink="http://www.w3.org/1999/xlink" viewBox="0 0 1325.6 1325.6"><defs><style>.cls-1{fill:#a5aeaf;}.cls-2{fill:#084887;}.cls-3{fill:#ced7dd;}.cls-4{fill:url(#Dégradé_sans_nom_19);}.cls-5{fill:url(#Dégradé_sans_nom_23);}.cls-6{fill:url(#Dégradé_sans_nom_29);}.cls-7{fill:#bad0e2;}.cls-8{fill:url(#Dégradé_sans_nom_12);}.cls-9{fill:#fff;}.cls-10{fill:#e7630a;}.cls-11{fill:#2e4058;}.cls-12{fill:#64727a;}.cls-13{fill:#a3b9c1;}.cls-14{fill:#b2c6d3;}</style><linearGradient id="Dégradé_sans_nom_19" x1="204.35" y1="617.69" x2="216.1" y2="519.48" gradientUnits="userSpaceOnUse"><stop offset="0" stop-color="#f36505"/><stop offset="0.12" stop-color="#f67c0d"/><stop offset="0.31" stop-color="#f99818"/><stop offset="0.49" stop-color="#fcad1f"/><stop offset="0.67" stop-color="#fdb924"/><stop offset="0.85" stop-color="#febd25"/></linearGradient><linearGradient id="Dégradé_sans_nom_23" x1="202.41" y1="745.75" x2="200.95" y2="551.12" gradientUnits="userSpaceOnUse"><stop offset="0.34" stop-color="#f15d02"/><stop offset="0.34" stop-color="#f15f03"/><stop offset="0.53" stop-color="#f89215"/><stop offset="0.67" stop-color="#fcb121"/><stop offset="0.75" stop-color="#febd25"/></linearGradient><linearGradient id="Dégradé_sans_nom_29" x1="209.26" y1="729.85" x2="200.28" y2="634.85" gradientUnits="userSpaceOnUse"><stop offset="0.07" stop-color="#f46906"/><stop offset="0.07" stop-color="#f46a06"/><stop offset="0.22" stop-color="#f88811"/><stop offset="0.37" stop-color="#fa9f1a"/><stop offset="0.54" stop-color="#fcb020"/><stop offset="0.72" stop-color="#feba24"/><stop offset="0.95" stop-color="#febd25"/></linearGradient><linearGradient id="Dégradé_sans_nom_12" x1="873" y1="1075.91" x2="1027.65" y2="1075.91" gradientUnits="userSpaceOnUse"><stop offset="0.46" stop-color="#e7630a"/><stop offset="1" stop-color="#efa003"/></linearGradient></defs><polygon class="cls-1" points="626.9 294.9 627.4 651 255 651 269 657.4 627.4 657.4 627.4 1052.9 629.1 1052.9 629.1 1055.8 819.4 1055.8 819.4 1049.4 637.9 1049.4 637.9 657.2 951 657 951 651 637.9 650.8 637.9 301.1 980 301.1 980 294.7 632.2 294.9 626.9 294.9"/><rect class="cls-2" x="501.7" y="536.2" width="254.4" height="254.45" rx="65.6"/><path class="cls-3" d="M663.7,603.6l19.5-11.9s2.7.3,13,11.2c8.7,9.3,8.7,10.9,8.7,10.9l-12.4,18.9Z"/><path class="cls-3" d="M571.1,628.4,559.2,609s.4-2.8,11.3-13.1c9.2-8.7,10.9-8.7,10.9-8.7l19.4,13.5Z"/><path class="cls-3" d="M609.7,596.4l5.2-22.2s2.2-1.7,17.1-1.4c12.8.3,13.9,1.5,13.9,1.5l4.8,22.1Z"/><path class="cls-3" d="M571.4,695.4l-11.9,19.5s.4,2.8,11.3,13c9.2,8.8,10.9,8.8,10.9,8.8l18.9-12.4Z"/><path class="cls-3" d="M564.3,641.4l-22.2,5.2s-1.7,2.2-1.4,17.2c.3,12.7,1.5,13.9,1.5,13.9l22.1,4.7Z"/><path class="cls-3" d="M689.2,697.4l11.9,19.4s-.3,2.8-11.2,13.1c-9.3,8.7-11.5,8.2-11.5,8.2l-18.3-11.9Z"/><path class="cls-3" d="M649.6,728.3l-3.3,23.1s-3.9,2-18.9,1.7c-12.7-.3-14.9-1.7-14.9-1.7l-3.9-23.1Z"/><path class="cls-3" d="M695.2,642.2l22.3,5.3s1.7,2.1,1.3,17.1c-.3,12.7-1.5,13.9-1.5,13.9l-22.1,4.7Z"/><path class="cls-3" d="M629.9,593.5a69.6,69.6,0,1,0,69.6,69.6A69.6,69.6,0,0,0,629.9,593.5Zm.3,93.1a27.7,27.7,0,1,1,27.7-27.7A27.7,27.7,0,0,1,630.2,686.6Z"/><path class="cls-4" d="M203.1,609.9c15.4,7,27,9.9,43.8,9,7.4-.3,13.7-3.8,18.4-7.6l-40.1-67.5a20.2,20.2,0,0,0-34.7,0l-46.8,77.8c4.3-3.5,13.3-10.5,19.3-13.1C171.1,605,187.7,603,203.1,609.9Z"/><path class="cls-5" d="M132.8,691c37.5-5,58.7-15.1,78.4-22.7s30.5-10.7,52.3-8.4c10.9,1.2,24.3,4.3,34.9,7.2l-33.1-55.8c-4.7,3.8-11,7.3-18.4,7.6-16.8.9-28.4-2-43.8-9s-32-4.9-40.1-1.4c-6,2.6-15,9.6-19.3,13.1l-38.3,63.7C111.2,689.2,115,693.4,132.8,691Z"/><path class="cls-6" d="M114.9,729H299.6A20.2,20.2,0,0,0,317,698.4l-18.6-31.3c-10.6-2.9-24-6-34.9-7.2-21.8-2.3-32.5.9-52.3,8.4s-58.9,18.9-82.5,22.4a32.5,32.5,0,0,1-23.3-5.4l-7.9,13A20.3,20.3,0,0,0,114.9,729Z"/><path class="cls-7" d="M920.7,1032.5h118.1c9.3,0,16.9,7.9,16.9,17.6V1151c-.8,8.8-12.3,8.8-15.9,2.4l-20.4-27.3H924.5c-9.3,0-16.9-7.9-16.9-17.7v-62.2C907.6,1038.6,913.5,1032.5,920.7,1032.5Z"/><path class="cls-8" d="M1014,1013.2H890.6a17.6,17.6,0,0,0-17.6,17.6v100.9c.8,8.8,12.9,8.8,16.6,2.4l21.3-27.3H1010a17.6,17.6,0,0,0,17.6-17.7v-62.3A13.6,13.6,0,0,0,1014,1013.2Z"/><circle class="cls-9" cx="910.5" cy="1059.5" r="13.8"/><circle class="cls-9" cx="950.4" cy="1059.5" r="13.8"/><circle class="cls-9" cx="992" cy="1059.5" r="13.8"/><rect class="cls-10" x="1089.9" y="208" width="50.6" height="155.69" rx="25.3"/><rect class="cls-11" x="1028" y="285.3" width="47" height="77.37" rx="23.5"/><rect class="cls-2" x="1155" y="259.7" width="51" height="103.11" rx="25.5"/><path class="cls-12" d="M1279.5,756H967.9a17.3,17.3,0,0,1-17.2-17.3V568a17.2,17.2,0,0,1,17.2-17.2h311.6a17.2,17.2,0,0,1,17.3,17.2V738.7A17.3,17.3,0,0,1,1279.5,756ZM967.9,556.9A11.1,11.1,0,0,0,956.8,568V738.7a11.2,11.2,0,0,0,11.1,11.2h311.6a11.2,11.2,0,0,0,11.2-11.2V568a11.2,11.2,0,0,0-11.2-11.1Z"/><rect class="cls-12" x="953.5" y="600.3" width="340" height="6.15"/><rect class="cls-12" x="953.5" y="650" width="340" height="6.15"/><rect class="cls-12" x="953.5" y="699.8" width="340" height="6.15"/><rect class="cls-13" x="1035.4" y="553.6" width="6.1" height="199.09"/><rect class="cls-13" x="1120.4" y="553.6" width="6.1" height="199.09"/><rect class="cls-13" x="1205.4" y="553.6" width="6.1" height="199.09"/><rect class="cls-2" x="967.8" y="570.2" width="56.6" height="16.9" rx="8.5"/><rect class="cls-2" x="1054.5" y="570.8" width="56.6" height="16.9" rx="8.5"/><rect class="cls-2" x="1138.8" y="570.8" width="56.6" height="16.9" rx="8.5"/><rect class="cls-2" x="1223" y="570.8" width="56.6" height="16.9" rx="8.5"/><rect class="cls-14" x="967.5" y="618.9" width="56.6" height="16.9" rx="8.5"/><rect class="cls-14" x="1054.2" y="619.5" width="56.6" height="16.9" rx="8.5"/><rect class="cls-14" x="1138.4" y="619.6" width="56.6" height="16.9" rx="8.5"/><rect class="cls-14" x="1222.7" y="619.6" width="56.6" height="16.9" rx="8.5"/><rect class="cls-14" x="967.5" y="668.1" width="56.6" height="16.9" rx="8.5"/><rect class="cls-14" x="1054.2" y="668.7" width="56.6" height="16.9" rx="8.5"/><rect class="cls-14" x="1138.4" y="668.8" width="56.6" height="16.9" rx="8.5"/><rect class="cls-14" x="1222.7" y="668.8" width="56.6" height="16.9" rx="8.5"/><rect class="cls-14" x="967.8" y="717.3" width="56.6" height="16.9" rx="8.5"/><rect class="cls-14" x="1054.5" y="717.9" width="56.6" height="16.9" rx="8.5"/><rect class="cls-14" x="1138.8" y="718" width="56.6" height="16.9" rx="8.5"/><rect class="cls-14" x="1223" y="718" width="56.6" height="16.9" rx="8.5"/></svg>