<svg width="1280" height="720" xmlns="http://www.w3.org/2000/svg" xmlns:xlink="http://www.w3.org/1999/xlink" overflow="hidden"><defs><clipPath id="clip0"><rect x="0" y="0" width="1280" height="720"/></clipPath></defs><g clip-path="url(#clip0)"><rect x="0" y="0" width="1280" height="720" fill="#FFFFFF"/><path d="M0 0 0.000209974 609.899" stroke="#D6DCE5" stroke-width="0.666667" stroke-miterlimit="8" stroke-dasharray="2.66667 2" fill="none" fill-rule="evenodd" transform="matrix(-1 0 0 1 90.5003 71.5001)"/><path d="M411.5 81.5001 411.727 694.229" stroke="#D6DCE5" stroke-width="0.666667" stroke-miterlimit="8" stroke-dasharray="2.66667 2" fill="none" fill-rule="evenodd"/><path d="M682.5 71.5001 682.5 694.409" stroke="#D6DCE5" stroke-width="0.666667" stroke-miterlimit="8" stroke-dasharray="2.66667 2" fill="none" fill-rule="evenodd"/><text font-family="Poppins,Poppins_MSFontService,sans-serif" font-weight="400" font-size="14" transform="translate(44.2085 38)">DEMANDEUR<tspan font-size="14" x="15" y="17">(Client</tspan><tspan font-size="14" x="62" y="17">)</tspan><tspan font-size="14" x="326.906" y="8">APPLICATION</tspan><tspan font-size="14" x="344.153" y="25">DASTRA</tspan><tspan font-size="14" x="565.801" y="5">UTILISATEUR DASTRA</tspan><tspan font-size="14" x="527.967" y="22">(Responsable des demandes)</tspan></text><path d="M101.503 106.833 403.818 108.298 403.812 109.631 101.497 108.167ZM402.501 104.958 410.481 108.997 402.462 112.958Z" fill="#7799BF"/><text font-family="Poppins,Poppins_MSFontService,sans-serif" font-weight="400" font-size="9" transform="translate(188.601 58)">1. Soumission du <tspan font-size="9" x="0" y="11">formulaire de demande</tspan><tspan font-size="9" x="0" y="22">d’exercice de droits </tspan><tspan font-size="9" x="0" y="33">(widget)</tspan></text><path d="M2.179e-07-0.666667 314.541-0.666564 314.541 0.666769-2.179e-07 0.666667ZM313.208-3.9999 321.208 0.000104987 313.208 4.0001Z" fill="#7799BF" transform="matrix(-1 0 0 1 411.708 159.5)"/><text font-family="Poppins,Poppins_MSFontService,sans-serif" font-weight="400" font-size="9" transform="translate(187.318 137)">2. Envoi d’un mail avec <tspan font-size="9" x="0" y="11">un lien de validation</tspan></text><path d="M90.5001 224.833 405.041 224.833 405.041 226.167 90.5001 226.167ZM403.708 221.5 411.708 225.5 403.708 229.5Z" fill="#7799BF"/><text font-family="Poppins,Poppins_MSFontService,sans-serif" font-weight="400" font-size="7" transform="translate(187.635 199)">4.1 Si le jeton est valide : redirection <tspan font-size="7" x="0" y="8">vers la page de succès de la </tspan><tspan font-size="7" x="0" y="16">demande.</tspan><tspan font-size="9" x="-145.319" y="-6">3. Clic sur le lien de </tspan><tspan font-size="9" x="-145.319" y="5">validation</tspan></text><path d="M91.5001 259.833 213.789 259.833 213.789 261.167 91.5001 261.167ZM212.456 256.5 220.456 260.5 212.456 264.5Z" fill="#F4B183"/><path d="M76 106.5C76 99.5964 81.5964 94 88.5 94 95.4036 94 101 99.5964 101 106.5 101 113.404 95.4036 119 88.5 119 81.5964 119 76 113.404 76 106.5Z" fill="#333F50" fill-rule="evenodd"/><text font-family="Poppins,Poppins_MSFontService,sans-serif" font-weight="400" font-size="7" transform="translate(101.482 245)">4.2 Si le jeton n’est pas valide, <tspan font-size="7" x="0" y="8">redirection vers la page d’erreur</tspan><tspan font-size="8" x="394.289" y="-29">5. Envoi</tspan><tspan font-size="8" x="426.289" y="-29">d’un</tspan><tspan font-size="8" x="445.956" y="-29">mail</tspan><tspan font-size="8" x="465.622" y="-29">d’alerte</tspan><tspan font-size="8" x="498.122" y="-29">en </tspan><tspan font-size="8" x="394.289" y="-19">temps réel aux utilisateurs </tspan><tspan font-size="8" x="394.289" y="-9">qui ont le rôle «</tspan><tspan font-size="8" x="456.622" y="-9">Notification</tspan><tspan font-size="8" x="504.456" y="-9">» </tspan><tspan font-size="8" x="394.289" y="0">des exercices de droits</tspan></text><path d="M681.894 363.108 417.164 362.19 417.169 360.857 681.899 361.775ZM418.486 365.528 410.5 361.5 418.514 357.528Z" fill="#7799BF"/><text font-family="Poppins,Poppins_MSFontService,sans-serif" font-weight="400" font-size="8" transform="translate(489.904 336)">6. Accès de l’utilisateur à la demande <tspan font-size="8" x="0" y="10">(via la notification ou directement </tspan><tspan font-size="8" x="0" y="20">dans l’application)</tspan></text><path d="M0.00224628-0.666663 313.707 0.390346 313.703 1.72367-0.00224628 0.666663ZM312.386-2.94746 320.372 1.07948 312.359 5.0525Z" fill="#7799BF" transform="matrix(-1 0 0 1 410.873 537.5)"/><text font-family="Poppins,Poppins_MSFontService,sans-serif" font-weight="400" font-size="8" transform="translate(495.602 466)">8. Renvoi des éléments nécessaires <tspan font-size="8" x="0" y="10">à la justification du traitement </tspan><tspan font-size="8" x="0" y="20">(Copie des données, preuve de </tspan><tspan font-size="8" x="0" y="29">suppression…)</tspan></text><path d="M413.5 413.833 676.321 413.833 676.321 415.167 413.5 415.167ZM674.987 410.5 682.987 414.5 674.987 418.5Z" fill="#7799BF"/><path d="M1.43612e-07-0.666667 480.698-0.666563 480.698 0.66677-1.43612e-07 0.666667ZM479.365-3.9999 487.365 0.000104987 479.365 4.0001Z" fill="#7799BF" transform="matrix(-1 0 0 1 900.865 453.5)"/><text font-family="Poppins,Poppins_MSFontService,sans-serif" font-weight="400" font-size="8" transform="translate(502.697 397)">7. Traitement et vérification <tspan font-size="8" x="0" y="10">de la demande</tspan></text><path d="M411.5 257.833 676.23 257.833 676.23 259.167 411.5 259.167ZM674.897 254.5 682.897 258.5 674.897 262.5Z" fill="#7799BF"/><path d="M2.17901e-07-0.666667 5.33333-0.666665 5.33333 0.666668-2.17901e-07 0.666667ZM9.33333-0.666664 14.6667-0.666662 14.6667 0.666671 9.33333 0.66667ZM18.6667-0.666661 24-0.666659 24 0.666674 18.6667 0.666673ZM28-0.666657 33.3333-0.666656 33.3333 0.666678 28 0.666676ZM37.3333-0.666654 42.6667-0.666653 42.6667 0.666681 37.3333 0.666679ZM46.6667-0.666651 52-0.66665 52 0.666684 46.6667 0.666682ZM56-0.666648 61.3333-0.666647 61.3333 0.666687 56 0.666685ZM65.3333-0.666645 70.6667-0.666644 70.6667 0.66669 65.3333 0.666688ZM74.6667-0.666642 80-0.666641 80 0.666693 74.6667 0.666691ZM84-0.666639 89.3333-0.666637 89.3333 0.666696 84 0.666694ZM93.3333-0.666636 98.6667-0.666634 98.6667 0.666699 93.3333 0.666697ZM102.667-0.666633 108-0.666631 108 0.666702 102.667 0.6667ZM112-0.66663 117.333-0.666628 117.333 0.666705 112 0.666703ZM121.333-0.666627 126.667-0.666625 126.667 0.666708 121.333 0.666706ZM130.667-0.666624 136-0.666622 136 0.666711 130.667 0.666709ZM140-0.666621 145.333-0.666619 145.333 0.666714 140 0.666712ZM149.333-0.666618 154.667-0.666616 154.667 0.666717 149.333 0.666715ZM158.667-0.666615 164-0.666613 164 0.66672 158.667 0.666719ZM168-0.666612 173.333-0.66661 173.333 0.666723 168 0.666722ZM177.333-0.666609 182.667-0.666607 182.667 0.666726 177.333 0.666725ZM186.667-0.666606 192-0.666604 192 0.666729 186.667 0.666728ZM196-0.666603 201.333-0.666601 201.333 0.666732 196 0.666731ZM205.333-0.6666 210.667-0.666598 210.667 0.666735 205.333 0.666734ZM214.667-0.666596 220-0.666595 220 0.666739 214.667 0.666737ZM224-0.666593 229.333-0.666592 229.333 0.666742 224 0.66674ZM233.333-0.66659 238.667-0.666589 238.667 0.666745 233.333 0.666743ZM242.667-0.666587 248-0.666586 248 0.666748 242.667 0.666746ZM252-0.666584 257.333-0.666583 257.333 0.666751 252 0.666749ZM261.333-0.666581 266.667-0.666579 266.667 0.666754 261.333 0.666752ZM270.667-0.666578 276-0.666576 276 0.666757 270.667 0.666755ZM280-0.666575 285.333-0.666573 285.333 0.66676 280 0.666758ZM289.333-0.666572 294.667-0.66657 294.667 0.666763 289.333 0.666761ZM298.667-0.666569 304-0.666567 304 0.666766 298.667 0.666764ZM308-0.666566 313.333-0.666564 313.333 0.666769 308 0.666767ZM313.207-3.9999 321.207 0.000104987 313.207 4.0001Z" fill="#7799BF" transform="matrix(-1 0 0 1 411.707 323.5)"/><text font-family="Poppins,Poppins_MSFontService,sans-serif" font-weight="400" font-size="7" transform="translate(188.886 296)">5. Envoi d’un mail de confirmation <tspan font-size="7" x="0" y="8">au client avec un lien d’accès à un </tspan><tspan font-size="7" x="0" y="16">espace demandeur</tspan><tspan font-size="8" x="13.7174" y="205">9. Envoi d’un mail de </tspan><tspan font-size="8" x="13.7174" y="215">communication au demandeur </tspan><tspan font-size="8" x="13.7174" y="225">avec un lien d’accès à l’espace </tspan><tspan font-size="8" x="13.7174" y="234">demandeur</tspan></text><path d="M0.00040278-0.666667 314.983-0.476363 314.982 0.85697-0.00040278 0.666667ZM313.652-3.8105 321.649 0.194331 313.647 4.1895Z" fill="#7799BF" transform="matrix(1 0 0 -1 90.5001 571.694)"/><path d="M0.000807321-0.666666 313.415-0.287127 313.413 1.0462-0.000807321 0.666666ZM312.085-3.62207 320.08 0.387612 312.075 4.37792Z" fill="#7799BF" transform="matrix(1 0 0 -1 90.5001 607.888)"/><text font-family="Poppins,Poppins_MSFontService,sans-serif" font-weight="400" font-size="8" transform="translate(203.031 557)">10. Le client arrive sur l’espace <tspan font-size="8" x="0" y="10">demandeur</tspan><tspan font-size="8" x="-0.411758" y="67">12. Le client saisit et accède à son </tspan><tspan font-size="8" x="-0.411758" y="77">espace demandeur</tspan><tspan font-size="8" x="0.954437" y="34">11. Le client demande un code de </tspan><tspan font-size="8" x="0.954437" y="44">vérification à 6 chiffres</tspan></text><path d="M0.0022421-0.666663 314.835 0.392175 314.831 1.7255-0.0022421 0.666663ZM313.513-2.94562 321.5 1.08126 313.486 5.05433Z" fill="#7799BF" transform="matrix(-1 0 0 1 411 638.5)"/><path d="M90.5001 661.833 675.751 661.833 675.751 663.167 90.5001 663.167ZM674.418 658.5 682.418 662.5 674.418 666.5Z" fill="#7799BF"/><text font-family="Poppins,Poppins_MSFontService,sans-serif" font-weight="400" font-size="8" transform="translate(458.951 654)">13. Le client envoie une réponse</text><path d="M2.60031e-07-0.666667 262.498-0.666564 262.498 0.666769-2.60031e-07 0.666667ZM261.165-3.9999 269.165 0.000104987 261.165 4.0001Z" fill="#7799BF" transform="matrix(-1 0 0 1 682.665 691.5)"/><text font-family="Poppins,Poppins_MSFontService,sans-serif" font-weight="400" font-size="8" transform="translate(458.591 684)">14. Clôture de la demande</text><path d="M410.354 691.176 109.166 691.167 109.166 689.834 410.354 689.842ZM110.5 694.5 102.5 690.5 110.5 686.5Z" fill="#7799BF"/><text font-family="Poppins,Poppins_MSFontService,sans-serif" font-weight="400" font-size="8" transform="translate(203.986 677)">15. Envoi d’une notification de <tspan font-size="8" x="0" y="10">fermeture</tspan></text><path d="M899.5 67.5001 899.5 704.058" stroke="#D6DCE5" stroke-width="0.666667" stroke-miterlimit="8" stroke-dasharray="2.66667 2" fill="none" fill-rule="evenodd"/><text font-family="Poppins,Poppins_MSFontService,sans-serif" font-weight="400" font-size="14" transform="translate(831.743 41)">UTILISATEUR DASTRA<tspan font-size="14" x="-39.42" y="17">(Propriétaires des traitements)</tspan></text><path d="M682.5 429.833 892.989 429.833 892.989 431.167 682.5 431.167ZM891.655 426.5 899.655 430.5 891.655 434.5Z" fill="#7799BF"/><text font-family="Poppins,Poppins_MSFontService,sans-serif" font-weight="400" font-size="8" transform="translate(729.547 410)">7.1 Notification aux <tspan font-size="8" x="0" y="10">propriétaires des traitements</tspan></text><path d="M411.658 429.577 108.163 428.197 108.169 426.864 411.664 428.244ZM109.482 431.536 101.5 427.5 109.518 423.536Z" fill="#F4B183"/><text font-family="Poppins,Poppins_MSFontService,sans-serif" font-weight="400" font-size="7" transform="translate(169.706 391)">7.2 Si demande non éligible <tspan font-size="7" x="0" y="8">(mauvaise identité…), rejet de la </tspan><tspan font-size="7" x="0" y="16">demande et envoi d’une </tspan><tspan font-size="7" x="0" y="24">notification de clôture au client</tspan></text><path d="M222 260C222 253.925 226.701 249 232.5 249 238.299 249 243 253.925 243 260 243 266.075 238.299 271 232.5 271 226.701 271 222 266.075 222 260Z" stroke="#333F50" stroke-width="4" stroke-miterlimit="8" fill="none" fill-rule="evenodd"/><path d="M78 425.5C78 419.701 82.9249 415 89 415 95.0751 415 100 419.701 100 425.5 100 431.299 95.0751 436 89 436 82.9249 436 78 431.299 78 425.5Z" stroke="#333F50" stroke-width="4" stroke-miterlimit="8" fill="none" fill-rule="evenodd"/><path d="M79 690C79 683.925 83.9249 679 90 679 96.0751 679 101 683.925 101 690 101 696.075 96.0751 701 90 701 83.9249 701 79 696.075 79 690Z" stroke="#333F50" stroke-width="4" stroke-miterlimit="8" fill="none" fill-rule="evenodd"/></g></svg>